# Alias OBJ Model File
# Exported from SketchUp, (c) 2000-2012 Trimble Navigation Limited
# File units = meters

mtllib claw.mtl

g Mesh1 Model

usemtl FrontColor
v 0.121097 0 -0.0774267
vt -4.7676 3.0483
vn 0 -1 -0
v 0.0924433 0 -0.0189854
vt -3.6395 0.747458
v -9.02389e-17 0 -0.00308957
vt 3.55271e-15 0.121637
v 3.06812e-17 0 -0.0536
vt -1.20792e-15 2.11024
v 0.0384213 0 -0.0417745
vt -1.51265 1.64467
v 0.0784217 0 -0.0457759
vt -3.08747 1.8022
v 0.102387 0 -0.0780516
vt -4.03097 3.0729
v 0.0929857 0 -0.120026
vt -3.66085 4.72542
v 0.0896796 0 -0.12316
vt -3.53069 4.84884
v 0.10019 0 -0.13603
vt -3.94449 5.35551
v 0.10523 0 -0.133237
vt -4.14291 5.24555
f 1/1/1 2/2/1 3/3/1 4/4/1 5/5/1 6/6/1 7/7/1 8/8/1 9/9/1 10/10/1 11/11/1 

vt 2.27335 0
vn 0.897884 0 0.440231
vt 4.83586 0
v 0.121097 0.0201 -0.0774267
vt 4.83586 0.791339
v 0.0924433 0.0201 -0.0189854
vt 2.27335 0.791339
f 2/12/2 1/13/2 12/14/2 13/15/2 

vt 1.62833 0
vn 0.961882 0 -0.273466
vt 3.91266 0
v 0.10523 0.0201 -0.133237
vt 3.91266 0.791339
vt 1.62833 0.791339
f 1/16/3 11/17/3 14/18/3 12/19/3 

vt -1.0812 0
vn 0.484701 0 -0.87468
vt -0.854345 0
v 0.10019 0.0201 -0.13603
vt -0.854345 0.791339
vt -1.0812 0.791339
f 11/20/4 10/21/4 15/22/4 14/23/4 

vt -6.64303 0
vn -0.774518 0 -0.632552
vt -5.98886 0
v 0.0896796 0.0201 -0.12316
vt -5.98886 0.791339
vt -6.64303 0.791339
f 10/24/5 9/25/5 16/26/5 15/27/5 

vt -0.774181 0
vn -0.688054 0 0.72566
vt -0.594811 0
v 0.0929857 0.0201 -0.120026
vt -0.594811 0.791339
vt -0.774181 0.791339
f 9/28/6 8/29/6 17/30/6 16/31/6 

vt -3.81108 0
vn -0.975825 0 0.218555
vt -2.11762 0
v 0.102387 0.0201 -0.0780516
vt -2.11762 0.791339
vt -3.81108 0.791339
f 8/32/7 7/33/7 18/34/7 17/35/7 

vt -4.8702 0
vn -0.802879 0 -0.596142
vt -3.28752 0
v 0.0784217 0.0201 -0.0457759
vt -3.28752 0.791339
vt -4.8702 0.791339
f 7/36/8 6/37/8 19/38/8 18/39/8 

vt -3.25152 0
vn -0.0995357 0 -0.995034
vt -1.66884 0
v 0.0384213 0.0201 -0.0417745
vt -1.66884 0.791339
vt -3.25152 0.791339
f 6/40/9 5/41/9 20/42/9 19/43/9 

vt -0.961918 0
vn 0.294166 0 -0.955754
vt 0.620759 0
v 3.06812e-17 0.0201 -0.0536
vt 0.620759 0.791339
vt -0.961918 0.791339
f 5/44/10 4/45/10 21/46/10 20/47/10 

vt -2.11024 0
vn -1 0 -2.39396e-15
vt -0.121637 0
v -9.02389e-17 0.0201 -0.00308957
vt -0.121637 0.791339
vt -2.11024 0.791339
f 4/48/11 3/49/11 22/50/11 21/51/11 

vt 0.0206132 0
vn 0.169465 0 0.985536
vt 3.71353 0
vt 3.71353 0.791339
vt 0.0206132 0.791339
f 3/52/12 2/53/12 13/54/12 22/55/12 

vt 3.6395 0.747458
vn 0 1 -0
vt 4.7676 3.0483
vt 4.14291 5.24555
vt 3.94449 5.35551
vt 3.53069 4.84884
vt 3.66085 4.72542
vt 4.03097 3.0729
vt 3.08747 1.8022
vt 1.51265 1.64467
vt 1.20792e-15 2.11024
vt -3.55271e-15 0.121637
f 13/56/13 12/57/13 14/58/13 15/59/13 16/60/13 17/61/13 18/62/13 19/63/13 20/64/13 21/65/13 22/66/13 

